HIERARCHY
ROOT Hips
{
  OFFSET 0 0 0
  CHANNELS 6 Xposition Yposition Zposition Zrotation Yrotation Xrotation
  JOINT LeftThigh
  {
    OFFSET 8.409438 0 -5.917753
    CHANNELS 3 Zrotation Yrotation Xrotation
    JOINT LeftLeg
    {
      OFFSET 0 0 -42.358652
      CHANNELS 3 Zrotation Yrotation Xrotation
      JOINT LeftFoot
      {
        OFFSET 0 0 -39.357303
        CHANNELS 3 Zrotation Yrotation Xrotation
      }
    }
  }
  JOINT RightThigh
  {
    OFFSET -8.409438 0 -5.917753
    CHANNELS 3 Zrotation Yrotation Xrotation
    JOINT RightLeg
    {
      OFFSET 0 0 -42.358652
      CHANNELS 3 Zrotation Yrotation Xrotation
      JOINT RightFoot
      {
        OFFSET 0 0 -39.357303
        CHANNELS 3 Zrotation Yrotation Xrotation
      }
    }
  }
  JOINT SpineLow
  {
    OFFSET 0 0 4.719101
    CHANNELS 3 Zrotation Yrotation Xrotation
    JOINT SpineMid
    {
      OFFSET 0 0 12.899191
      CHANNELS 3 Zrotation Yrotation Xrotation
      JOINT Chest
      {
        OFFSET 0 0 12.899191
        CHANNELS 3 Zrotation Yrotation Xrotation
        JOINT LeftShoulder
        {
          OFFSET 7.550562 1.41573 9.438202
          CHANNELS 3 Zrotation Yrotation Xrotation
          JOINT LeftArm
          {
            OFFSET 9.155056 0 4.247191
            CHANNELS 3 Zrotation Yrotation Xrotation
            JOINT LeftForearm
            {
              OFFSET 0 0 25.771955
              CHANNELS 3 Zrotation Yrotation Xrotation
              JOINT LeftHand
              {
                OFFSET 0 0 25.197169
                CHANNELS 3 Zrotation Yrotation Xrotation
              }
            }
          }
        }
        JOINT RightShoulder
        {
          OFFSET -7.550562 1.41573 9.438202
          CHANNELS 3 Zrotation Yrotation Xrotation
          JOINT RightArm
          {
            OFFSET -9.155056 0 4.247191
            CHANNELS 3 Zrotation Yrotation Xrotation
            JOINT RightForearm
            {
              OFFSET 0 0 -25.771955
              CHANNELS 3 Zrotation Yrotation Xrotation
              JOINT RightHand
              {
                OFFSET 0 0 -25.197169
                CHANNELS 3 Zrotation Yrotation Xrotation
              }
            }
          }
        }
        JOINT Neck
        {
          OFFSET 0 0 15.101124
          CHANNELS 3 Zrotation Yrotation Xrotation
          JOINT Head
          {
            OFFSET 0 0 11.325843
            CHANNELS 3 Zrotation Yrotation Xrotation
            End Site
            {
              OFFSET 0 0 14.157303
            }
          }
        }
      }
    }
  }
}
MOTION
Frames: 12
Frame Time: 0.0
0.0  93.25843  0.0  -1.139681  -22.947677  -91.917121  19.997965  -13.019863  3.373349  0.518575  -0.945072  6.806905  7.04261  0.935917  2.271678  -15.481086  -0.085132  -8.964655  -6.055513  5.075108  1.835972  6.686141  1.208138  0.490244  1.520365  -1.870803  0.817256  4.099577  -5.162134  2.119062  4.099577  -5.162134  2.119062  -19.713219  28.448861  -13.877685  133.195973  39.834796  -170.71438  59.129367  -10.778219  48.42736  88.309081  29.302583  -2.800692  0.91073  0.976424  20.560619  99.402092  43.449307  35.659599  -4.389109  -36.036844  -109.101335  62.545439  22.325659  14.348536  -2.798806  7.586437  2.229673  -2.12388  5.679867  1.704768  
0.0  93.25843  0.0  -1.13447  -22.928672  -91.961638  20.017955  -13.068281  3.331065  0.508314  -0.860851  6.974144  7.021236  0.925138  2.262453  -15.471223  -0.133533  -8.930117  -5.880663  5.233843  1.940176  6.670356  1.211865  0.496617  1.537896  -1.873858  0.823272  4.147027  -5.171391  2.133964  4.147028  -5.171391  2.133964  -19.499806  28.410176  -13.785677  133.88384  39.912862  -170.282628  58.795192  -11.216214  48.922166  88.168462  29.140332  -2.710735  0.848745  0.978879  20.578529  99.338009  43.425085  35.608098  -4.569202  -36.001487  -108.902188  62.70682  22.25857  14.465772  -2.858509  7.573573  2.243312  -2.168726  5.669946  1.715676  
0.0  93.25843  0.0  -1.144053  -23.109806  -92.113497  20.374508  -13.181784  3.454068  0.434178  -0.761335  7.091374  6.93602  0.909157  2.223876  -15.417614  -0.198903  -8.835074  -5.585649  5.399438  2.084365  6.619147  1.21187  0.490993  1.604403  -1.876452  0.835974  4.32807  -5.181358  2.163314  4.328071  -5.181358  2.163314  -19.158097  28.453065  -13.543363  134.576608  39.981928  -169.848557  58.616628  -11.686029  49.414304  88.270491  28.887387  -2.61274  0.578926  0.972994  20.578175  99.264367  43.349158  35.520759  -4.529934  -35.931564  -108.797136  62.960658  22.251299  14.714077  -3.021993  7.533605  2.276454  -2.291459  5.639225  1.742364  
0.0  93.25843  0.0  -1.126963  -22.997296  -92.174787  20.39414  -13.238711  3.41702  0.356573  -0.670981  7.252211  6.914862  0.901675  2.222823  -15.39507  -0.194636  -8.760382  -5.413103  5.533087  2.191584  6.581346  1.207227  0.496854  1.622849  -1.877131  0.850087  4.377446  -5.184716  2.20044  4.377446  -5.184716  2.20044  -18.977633  28.407493  -13.495623  135.094308  40.031978  -169.537185  58.44139  -12.290461  49.905564  88.197163  28.745355  -2.64491  0.476103  0.981331  20.541743  99.036006  43.337468  35.363801  -4.742381  -35.825038  -108.567272  63.138793  22.167275  14.891045  -3.122375  7.514759  2.259189  -2.366369  5.624814  1.730596  
0.0  93.25843  0.0  -1.136252  -23.083146  -92.350553  20.637407  -13.3835  3.499656  0.255951  -0.557905  7.415572  6.841553  0.882683  2.188388  -15.29017  -0.191808  -8.590088  -5.124068  5.663076  2.340737  6.622492  1.200781  0.515563  1.640874  -1.887868  0.859553  4.425764  -5.215248  2.224236  4.425765  -5.215248  2.224236  -18.264766  28.560259  -13.183178  135.544567  39.982837  -169.268073  58.449273  -13.013037  50.295581  88.186148  28.477284  -2.658631  0.46214  1.02717  20.603004  98.730906  43.334071  35.164112  -4.730855  -35.732272  -108.430688  63.301749  22.137386  15.089279  -3.140216  7.510556  2.322663  -2.380505  5.621278  1.778337  
0.0  93.25843  0.0  -1.144476  -22.858268  -92.390175  20.643345  -13.478111  3.426867  0.145532  -0.450682  7.606509  6.806035  0.86689  2.180015  -15.327746  -0.187665  -8.49216  -4.980018  5.791202  2.449087  6.597799  1.190024  0.514383  1.658271  -1.891035  0.856572  4.473556  -5.22426  2.214485  4.473556  -5.22426  2.214485  -18.091355  28.561  -13.072308  135.816533  39.906591  -169.158958  58.086374  -13.838026  50.610345  88.037753  28.221075  -2.647796  0.315148  1.003482  20.648454  98.454348  43.31733  35.017561  -5.019162  -35.621914  -108.238328  63.389943  22.004413  15.247315  -3.281926  7.480671  2.357887  -2.486985  5.598155  1.80633  
0.0  93.25843  0.0  -1.184501  -22.886709  -92.550259  20.877087  -13.696037  3.427172  -0.005167  -0.304284  7.801093  6.732698  0.843741  2.17443  -15.231769  -0.189509  -8.290065  -4.795962  5.922983  2.568227  6.669347  1.164654  0.54106  1.672758  -1.907186  0.858711  4.512628  -5.268988  2.21813  4.512628  -5.268988  2.21813  -17.547682  28.718431  -12.817797  136.308206  39.765456  -169.119805  57.635652  -14.791407  50.906758  87.907146  27.816813  -2.641306  0.281902  1.035159  20.732638  98.23514  43.246147  34.918584  -5.182394  -35.529456  -108.159452  63.451785  21.831251  15.405936  -3.311327  7.478984  2.449274  -2.510127  5.596294  1.87513  
0.0  93.25843  0.0  -1.230326  -22.536902  -92.543612  20.88632  -13.82007  3.248511  -0.15227  -0.192866  8.073398  6.674297  0.824403  2.168695  -15.361275  -0.200616  -8.195251  -4.684551  6.048496  2.687001  6.647992  1.155327  0.535027  1.677025  -1.922535  0.843965  4.525101  -5.310054  2.176419  4.525101  -5.310054  2.176419  -17.363903  28.818793  -12.667462  136.746022  39.620243  -168.981491  56.803389  -15.739919  51.209531  87.599146  27.426543  -2.656293  0.161168  1.042564  20.818817  97.89373  43.210907  34.766871  -5.546205  -35.376317  -108.021371  63.563602  21.568694  15.585794  -3.473349  7.476652  2.510247  -2.632217  5.593575  1.922784  
0.0  93.25843  0.0  -1.296271  -22.451353  -92.647047  21.370961  -14.046464  3.225596  -0.54753  -0.053438  8.205476  6.533897  0.800334  2.149717  -15.345494  -0.239825  -8.029224  -4.655995  6.178725  2.798055  6.623776  1.156244  0.51523  1.698162  -1.935289  0.826818  4.584056  -5.34438  2.126916  4.584056  -5.34438  2.126916  -17.025902  28.962283  -12.431276  139.166747  39.33741  -168.798418  56.830719  -17.422385  52.298514  87.28187  26.863689  -2.707318  0.017556  1.027808  20.935319  97.666955  43.06716  34.660864  -5.993915  -35.154668  -107.885943  63.652939  21.198274  15.695886  -3.60213  7.440432  2.633912  -2.730072  5.56518  2.016803  
0.0  93.25843  0.0  -1.364097  -22.019048  -92.593501  21.475565  -14.198617  2.939205  -0.787661  0.083781  8.523174  6.432825  0.766836  2.153093  -15.510897  -0.285422  -7.987364  -4.531844  6.314499  2.960094  6.605847  1.155754  0.512279  1.707233  -1.948798  0.796189  4.611079  -5.379446  2.041428  4.611079  -5.379446  2.041428  -16.768981  29.038652  -12.242753  140.065476  39.150412  -168.4671  55.554518  -18.320404  52.998448  86.817472  26.354128  -2.7777  -0.153324  1.001782  21.06644  97.154368  43.047821  34.431675  -6.451991  -34.845161  -107.736137  63.863746  20.747182  15.88548  -3.815972  7.430493  2.71757  -2.891224  5.55632  2.082033  
0.0  93.25843  0.0  -1.445942  -21.686996  -92.576784  21.928921  -14.404207  2.748227  -1.08681  0.226034  8.837332  6.151337  0.724121  2.044094  -15.671447  -0.363513  -7.948743  -4.500736  6.457949  3.111901  6.839603  1.165926  0.566924  1.701097  -1.964734  0.758951  4.596978  -5.420233  1.938927  4.596978  -5.420233  1.938927  -16.200584  29.191106  -11.943687  143.05058  38.878369  -168.029364  55.234936  -19.916586  54.760403  86.352967  25.787719  -2.827752  -0.341706  1.012346  21.135882  96.802041  42.87661  34.256839  -7.047468  -34.435195  -107.540765  64.040544  20.169289  15.990815  -3.940467  7.414115  2.830363  -2.985791  5.542785  2.167946  
0.0  93.25843  0.0  -1.50354  -21.184102  -92.476213  22.120597  -14.540975  2.386919  -1.403624  0.362335  9.150421  6.027522  0.69857  2.053502  -15.850497  -0.416855  -7.967711  -4.357732  6.618101  3.319098  6.780804  1.170193  0.567632  1.71077  -1.977603  0.709321  4.62732  -5.452215  1.801393  4.62732  -5.452215  1.801393  -15.767044  29.318379  -11.572715  144.468803  38.821777  -167.493244  53.646337  -20.69465  56.126753  85.761415  25.265808  -2.810723  -0.528838  1.022673  21.324606  96.085414  42.853218  33.905865  -7.647677  -33.875505  -107.331685  64.351782  19.506183  16.220953  -4.151017  7.422076  2.931801  -3.144759  5.547135  2.24655  
